<?xml version="1.0" standalone="no"?>
<!DOCTYPE svg PUBLIC "-//W3C//DTD SVG 20010904//EN"
 "http://www.w3.org/TR/2001/REC-SVG-20010904/DTD/svg10.dtd">
<svg version="1.0" xmlns="http://www.w3.org/2000/svg"
 width="512.000000pt" height="512.000000pt" viewBox="0 0 512.000000 512.000000"
 preserveAspectRatio="xMidYMid meet">
<metadata>
Created by potrace 1.14, written by Peter Selinger 2001-2017
</metadata>
<g transform="translate(0.000000,512.000000) scale(0.100000,-0.100000)"
fill="#000000" stroke="none">
<path d="M0 2633 l0 -2488 45 50 c24 27 49 62 56 77 13 33 29 37 29 8 0 -27
19 -25 24 3 32 159 54 242 82 312 4 11 8 25 9 30 3 26 17 55 27 55 6 0 8 9 5
20 -3 11 -1 18 4 14 5 -3 9 3 9 13 0 11 4 23 10 29 5 5 11 19 13 32 7 46 187
384 187 351 0 -3 -9 -30 -20 -62 -11 -31 -20 -63 -20 -70 0 -8 -9 -43 -20 -77
-11 -35 -18 -71 -15 -80 7 -22 -31 -155 -59 -204 -13 -23 -22 -46 -19 -52 3
-11 -73 -183 -86 -194 -3 -3 -26 -43 -50 -89 -32 -63 -61 -101 -113 -150 -38
-36 -76 -70 -84 -74 -8 -5 -14 -24 -14 -47 l0 -40 393 0 c373 0 393 1 409 19
10 12 36 22 69 26 29 4 68 16 86 26 19 11 51 19 73 19 33 0 38 -3 33 -17 -4
-10 -11 -22 -17 -26 -8 -6 -7 -10 2 -14 6 -2 12 -11 12 -19 0 -17 26 -19 34
-1 5 9 7 9 12 0 7 -15 81 -17 86 -3 2 7 42 7 123 0 140 -11 735 -14 735 -2 -1
4 -9 25 -20 47 -19 39 -26 75 -14 75 19 0 44 -25 58 -57 25 -61 39 -73 85 -73
22 0 41 2 41 4 0 2 -23 47 -50 99 -28 52 -50 102 -50 111 0 24 26 30 52 12 12
-9 28 -16 36 -16 7 0 45 -22 85 -49 40 -26 116 -74 170 -105 l99 -57 101 3
101 3 -95 49 c-169 88 -452 256 -520 309 -11 8 -21 41 -29 92 -6 44 -20 118
-31 165 -34 144 -38 175 -44 322 -8 205 -23 398 -35 437 -5 19 -8 36 -7 38 2
1 48 -30 103 -71 154 -113 278 -179 504 -267 54 -21 84 -27 108 -23 20 4 43 1
57 -6 33 -18 62 -5 202 85 65 42 154 98 198 126 44 27 88 55 97 61 9 7 19 10
22 7 3 -3 -1 -52 -9 -109 -13 -102 -8 -341 8 -367 4 -6 11 -42 17 -79 8 -61 7
-74 -10 -109 -21 -42 -95 -126 -145 -164 -21 -15 -23 -19 -7 -11 13 7 26 9 29
6 4 -3 -10 -61 -30 -128 -42 -142 -62 -229 -72 -310 l-6 -58 73 0 73 1 40 64
c41 67 58 76 63 34 2 -13 8 -41 13 -61 9 -37 11 -38 54 -38 25 0 45 2 45 4 0
2 -6 16 -14 31 -8 15 -17 69 -21 120 -7 84 -5 98 14 137 12 23 30 54 40 67
l19 24 83 -50 c99 -59 101 -66 61 -168 -26 -66 -30 -71 -72 -85 l-45 -15 38
-3 c34 -3 37 -6 37 -33 l0 -29 210 0 210 0 0 80 c0 77 5 90 26 72 5 -5 65 -32
133 -61 68 -29 137 -61 155 -72 28 -17 52 -19 243 -19 198 0 212 1 206 18 -6
16 -5 16 14 -1 15 -13 34 -17 68 -15 l48 3 -47 52 c-127 141 -308 416 -291
443 3 5 18 10 33 9 24 0 32 -12 79 -107 54 -110 121 -205 231 -329 l63 -71 95
-1 94 -1 0 2560 0 2560 -2560 0 -2560 0 0 -2487z m3005 2447 c33 -7 65 -17 72
-22 7 -6 34 -11 60 -13 107 -6 355 -113 421 -181 23 -25 47 -42 52 -39 5 3 14
-3 19 -14 6 -11 21 -23 33 -27 12 -3 28 -13 36 -20 7 -8 17 -12 22 -9 10 6 77
-68 119 -132 22 -33 38 -50 48 -46 8 3 13 0 11 -8 -2 -8 2 -13 8 -12 7 1 15
-9 18 -22 4 -14 13 -25 22 -25 8 0 17 -6 20 -14 3 -8 12 -12 20 -9 10 3 14 -2
14 -19 0 -14 14 -38 35 -58 19 -19 35 -40 35 -47 0 -7 4 -13 9 -13 5 0 13 -10
17 -22 3 -12 11 -26 16 -32 13 -16 80 -121 79 -124 -1 -1 10 -25 24 -52 14
-28 23 -50 20 -50 -13 0 28 -50 45 -55 10 -3 24 -23 31 -43 7 -20 20 -52 31
-70 10 -18 18 -45 18 -60 0 -15 7 -38 16 -50 9 -13 13 -31 9 -42 -4 -11 -2
-20 2 -20 5 0 9 -19 9 -42 0 -36 4 -43 20 -43 27 0 55 -87 52 -166 -2 -48 1
-63 15 -73 12 -9 16 -23 13 -46 -2 -20 4 -46 15 -64 30 -52 79 -275 81 -369 0
-26 4 -50 9 -53 5 -3 9 -20 9 -37 0 -18 7 -50 14 -72 9 -26 11 -44 4 -52 -11
-13 -6 -55 10 -95 6 -15 10 -46 7 -67 -2 -22 3 -80 11 -128 20 -117 35 -235
39 -308 4 -84 16 -218 20 -225 7 -12 15 -264 8 -256 -4 4 -13 49 -20 99 -18
137 -40 289 -58 407 -9 58 -23 148 -31 200 -8 52 -21 131 -29 175 -8 44 -19
118 -25 165 -32 255 -72 495 -97 580 -9 30 -28 80 -44 110 -15 30 -34 84 -42
120 -40 172 -102 344 -209 580 -67 148 -90 188 -155 271 -43 56 -53 76 -30 63
6 -4 4 2 -6 14 -11 12 -25 18 -34 15 -16 -6 -148 125 -163 164 -5 12 -42 45
-82 72 -40 28 -94 66 -119 83 -26 18 -111 66 -190 106 -114 58 -158 75 -214
83 -38 6 -110 20 -160 32 -79 19 -123 22 -359 24 -238 3 -282 1 -385 -18 -64
-12 -148 -24 -186 -28 -43 -5 -92 -18 -127 -34 -31 -15 -62 -27 -69 -27 -7 0
-10 -3 -6 -6 11 -12 -20 -33 -40 -28 -63 17 -393 -157 -411 -216 -3 -9 6 -6
22 9 42 39 40 18 -4 -38 -22 -28 -59 -60 -83 -72 -23 -12 -36 -15 -29 -8 19
21 14 31 -9 18 -39 -20 -111 -93 -149 -149 -45 -67 -93 -161 -150 -295 -23
-55 -57 -125 -74 -155 -18 -30 -37 -68 -43 -85 -50 -131 -89 -242 -109 -310
-13 -44 -42 -141 -64 -215 -22 -74 -47 -169 -55 -210 -9 -41 -22 -97 -29 -125
-16 -57 -50 -304 -43 -311 4 -5 -9 -62 -57 -249 -39 -149 -51 -260 -51 -461 0
-146 -3 -180 -13 -176 -11 4 -12 33 -7 139 4 96 2 139 -6 149 -18 22 -11 276
10 349 5 17 9 48 10 70 2 51 9 87 26 150 8 28 18 91 24 141 5 49 26 153 46
230 20 76 56 216 80 309 24 94 53 188 64 208 12 21 21 48 21 60 0 13 9 40 20
62 11 22 20 52 20 67 0 26 5 41 36 113 7 17 22 56 34 87 11 31 31 71 43 90 12
18 37 67 55 108 85 190 153 299 249 394 263 260 322 307 448 357 44 17 94 37
112 45 17 8 34 14 38 14 3 0 61 20 128 44 154 55 322 88 512 99 126 8 494 -1
550 -13z m-1753 -631 c-16 -24 -29 -52 -29 -61 0 -20 -67 -120 -71 -107 -2 5
4 22 15 37 10 15 18 35 18 44 0 18 85 141 92 134 2 -2 -9 -23 -25 -47z m138
-168 c-1 -30 -27 -64 -60 -77 -28 -12 -31 -12 -26 1 3 8 0 14 -7 12 -17 -3
-10 55 9 69 23 18 84 14 84 -5z m2578 -33 c7 -7 12 -29 12 -50 0 -37 -1 -38
-34 -38 -40 0 -66 28 -66 72 0 26 3 28 38 28 21 0 43 -5 50 -12z m-2528 -38
c0 -5 6 -10 13 -10 7 0 18 -5 25 -12 10 -10 6 -17 -14 -35 -32 -27 -46 -21
-38 15 l5 27 -18 -27 c-10 -16 -21 -28 -25 -28 -14 0 -8 43 9 62 17 19 43 24
43 8z m253 -74 c-5 -70 -55 -132 -90 -110 -24 15 -23 92 1 128 14 23 23 27 54
24 36 -3 37 -4 35 -42z m1981 1 c28 -28 42 -92 25 -113 -17 -20 -33 -17 -67
11 l-30 25 -41 -22 c-33 -17 -43 -19 -56 -8 -8 7 -15 18 -15 26 0 15 60 29 90
21 16 -4 18 -1 13 24 -3 15 -3 35 0 44 9 23 55 18 81 -8z m-1664 -6 c16 -31 0
-112 -32 -163 -35 -55 -48 -60 -48 -18 0 19 -5 30 -14 30 -8 0 -22 3 -31 6
-11 5 -18 0 -22 -15 -7 -27 -29 -27 -44 0 -8 17 -8 32 1 63 7 23 17 56 22 74
7 23 16 32 30 32 18 0 20 -5 15 -35 -3 -19 -2 -37 4 -40 5 -3 28 14 51 39 24
25 46 46 50 46 4 0 12 -9 18 -19z m194 -39 c-1 -44 -24 -74 -54 -69 -21 3 -44
76 -31 103 8 18 15 20 48 15 37 -7 38 -7 37 -49z m724 36 c7 -7 12 -35 12 -63
0 -39 -5 -56 -20 -70 -17 -15 -22 -16 -36 -4 -10 8 -29 14 -43 14 -22 0 -26 5
-29 33 -3 27 1 34 22 42 15 5 26 17 26 28 0 10 3 22 7 25 11 11 48 8 61 -5z
m862 1 c0 -5 -7 -9 -15 -9 -8 0 -15 -7 -15 -15 0 -21 -17 -19 -30 4 -14 27
-14 27 25 28 19 1 35 -3 35 -8z m-2030 -19 c0 -5 9 -10 20 -10 11 0 21 -6 21
-12 4 -40 -17 -76 -35 -58 -5 5 -18 10 -28 10 -20 0 -23 16 -8 54 9 25 30 36
30 16z m520 -9 c0 -20 -13 -41 -21 -35 -15 9 -10 44 6 44 8 0 15 -4 15 -9z
m498 -68 c-4 -81 -28 -85 -28 -4 0 48 3 61 15 61 13 0 15 -11 13 -57z m686 35
c21 -30 21 -97 0 -105 -39 -15 -94 47 -94 107 0 30 73 29 94 -2z m-203 -43 c7
-23 3 -33 -19 -56 -32 -34 -42 -35 -71 -10 -17 14 -22 28 -19 53 3 30 6 33 35
33 17 0 35 4 39 8 13 13 28 2 35 -28z m-661 -134 c0 -96 -53 -392 -87 -491
-19 -54 -20 -55 -59 -55 -24 0 -38 4 -37 12 1 6 -3 16 -10 21 -20 16 -232 81
-307 94 -38 7 -70 17 -70 23 0 19 279 284 370 351 47 34 92 70 101 79 33 32
82 64 90 59 5 -3 9 -45 9 -93z m1468 -57 c49 -38 64 -80 52 -145 -6 -29 -21
-67 -35 -85 l-25 -32 33 -8 c17 -3 56 -17 85 -30 52 -23 52 -23 52 -67 0 -39
-5 -49 -35 -76 -20 -17 -45 -33 -58 -36 -12 -3 -40 -9 -62 -13 -28 -6 -39 -13
-35 -23 2 -8 6 -41 8 -75 3 -55 1 -63 -26 -91 -26 -28 -32 -31 -63 -23 -115
28 -159 61 -159 118 0 34 0 34 -25 18 -13 -9 -42 -16 -65 -16 -22 0 -40 -3
-40 -6 0 -3 9 -18 20 -32 58 -76 163 -228 171 -249 11 -31 12 -63 0 -63 -14 0
-121 166 -168 262 -50 98 -87 132 -47 42 43 -98 76 -158 120 -222 39 -56 52
-82 40 -82 -2 0 -30 16 -62 35 -32 19 -61 35 -66 35 -4 0 -8 5 -8 11 0 7 10 9
28 5 22 -5 24 -4 10 4 -10 6 -18 17 -18 24 0 9 -27 15 -97 19 -54 3 -141 13
-193 22 -52 9 -110 14 -128 11 -23 -3 -44 1 -68 15 -38 21 -48 19 -65 -12 -9
-18 -8 -19 10 -7 11 7 23 9 27 5 11 -10 -49 -76 -76 -82 -14 -4 -34 -10 -45
-15 -19 -9 -19 -9 4 -16 21 -6 22 -11 17 -45 -8 -47 5 -50 34 -9 22 31 67 60
93 60 10 0 6 -16 -15 -57 -32 -63 -35 -121 -7 -178 15 -31 32 -38 174 -75 39
-10 96 -28 128 -41 l59 -22 21 25 c27 31 70 43 97 26 27 -17 44 0 31 34 -5 15
-6 30 0 39 14 22 11 29 -12 29 -13 0 -23 -8 -26 -21 -4 -16 -11 -19 -29 -15
-12 3 -34 1 -48 -6 -38 -16 -43 -3 -19 46 12 24 25 60 28 80 l7 36 29 -31 c21
-22 35 -30 50 -26 14 4 42 -6 77 -25 30 -18 71 -34 91 -37 l36 -6 8 -77 c11
-114 -32 -312 -132 -612 -84 -249 -85 -251 -162 -356 -130 -175 -541 -494
-740 -574 -47 -19 -84 -26 -131 -26 -59 0 -78 6 -194 60 -216 101 -303 149
-439 241 -155 105 -284 228 -336 320 -20 35 -64 111 -98 169 -33 58 -61 112
-61 122 0 9 -5 20 -10 23 -24 15 -61 111 -84 217 l-24 113 46 85 c87 162 142
275 142 295 0 11 -4 27 -9 34 -8 12 -12 10 -20 -10 -70 -169 -130 -287 -154
-307 -9 -8 -13 2 -15 40 -2 45 6 67 63 184 59 119 69 134 91 134 14 0 32 -7
40 -15 22 -22 29 -19 42 19 8 21 32 49 65 73 76 57 80 59 72 34 -10 -31 17
-27 55 9 18 17 33 30 34 30 3 0 -5 -196 -9 -207 -6 -17 -25 -16 -25 1 0 20
-24 26 -78 19 l-47 -6 24 20 c20 17 22 22 12 41 -13 25 -31 29 -31 8 0 -7 -13
-30 -30 -51 -16 -20 -27 -42 -24 -47 4 -6 27 -8 55 -4 31 4 49 3 49 -4 0 -5 7
-10 16 -10 14 0 14 -2 0 -22 -19 -26 -21 -48 -5 -48 6 0 30 13 53 28 37 25 50
28 141 29 55 1 143 5 196 9 97 6 97 6 115 39 14 27 16 48 11 124 -3 50 -3 91
1 91 4 -1 29 -21 56 -45 l49 -43 -62 -129 c-34 -70 -74 -141 -89 -156 -21 -22
-24 -30 -13 -37 8 -4 21 -6 29 -2 12 4 14 1 9 -14 -5 -14 -3 -13 11 5 28 38
125 141 129 137 6 -6 -96 -198 -124 -233 -21 -27 -22 -33 -9 -33 9 0 16 6 16
14 0 7 8 16 18 20 9 3 38 19 64 35 29 19 48 25 51 18 2 -6 22 4 49 26 25 20
49 37 54 37 14 0 77 85 133 178 26 44 58 93 70 109 22 28 22 28 15 3 -3 -14
-37 -87 -75 -163 -72 -144 -82 -172 -49 -142 28 25 90 134 149 260 65 139 65
138 76 136 24 -4 1 -209 -30 -271 -7 -14 -16 -43 -19 -65 l-6 -40 38 60 c38
61 74 140 112 250 28 80 50 283 54 485 2 91 8 185 15 210 29 108 83 270 90
270 4 0 13 -12 20 -27 40 -88 205 -244 294 -278 44 -17 75 -51 60 -66 -4 -4
-55 -19 -113 -33 -158 -37 -207 -59 -278 -124 -34 -31 -62 -60 -62 -63 0 -4
10 -9 22 -12 15 -4 61 12 143 52 172 83 293 133 307 128 7 -2 21 9 31 25 9 16
31 37 47 46 35 20 37 28 11 35 -26 6 -36 92 -20 178 l12 68 51 6 c57 7 98 -5
134 -38 23 -22 24 -22 34 -2 28 50 118 114 162 115 11 0 35 -12 54 -26z
m-1398 -231 c-28 -162 -142 -549 -168 -575 -7 -7 -17 -6 -33 6 -13 9 -34 16
-46 16 -13 0 -23 4 -23 8 0 7 44 95 102 205 11 20 24 37 29 37 5 0 9 8 9 18 0
9 7 25 15 35 7 10 37 88 66 173 28 85 54 152 57 150 2 -3 -1 -36 -8 -73z
m-611 -194 c47 -11 91 -24 96 -29 21 -17 201 -71 256 -77 33 -3 59 -9 59 -12
0 -18 -54 -151 -61 -151 -5 0 -9 -6 -9 -14 0 -8 -8 -24 -18 -36 -16 -20 -21
-21 -41 -11 -21 12 -21 14 -7 30 16 17 22 41 11 41 -4 0 -20 -7 -37 -16 -18
-9 -52 -16 -77 -16 -42 1 -290 -44 -369 -67 -40 -12 -92 4 -92 27 0 31 38 137
67 190 28 50 118 162 130 162 3 0 44 -9 92 -21z m-1283 -111 c-4 -34 -21 -102
-37 -150 -19 -58 -29 -110 -30 -151 -1 -79 -16 -123 -20 -57 -4 74 1 109 32
235 35 139 48 185 56 185 3 0 2 -28 -1 -62z m1711 -312 c2 -2 -1 -16 -7 -32
-11 -28 -12 -29 -26 -9 -9 11 -20 29 -26 39 -9 17 -7 18 23 12 18 -3 34 -8 36
-10z m-422 -16 c11 -18 -15 -40 -46 -40 -33 0 -36 6 -12 32 18 20 48 24 58 8z
m125 -36 c15 -40 12 -80 -9 -105 -30 -36 -55 -16 -59 46 -5 72 46 117 68 59z
m1088 4 c17 -17 15 -35 -4 -42 -25 -10 -46 12 -33 35 11 22 20 24 37 7z m136
-34 c7 -19 -2 -80 -16 -106 -11 -22 -54 -23 -62 -2 -3 9 -6 31 -6 49 0 55 68
102 84 59z m-1759 -14 c-3 -5 -11 -10 -16 -10 -6 0 -7 5 -4 10 3 6 11 10 16
10 6 0 7 -4 4 -10z m2188 -29 c17 -7 26 -19 30 -43 7 -44 -5 -54 -44 -38 -27
12 -69 61 -69 83 0 10 54 9 83 -2z m-1682 -87 c10 -13 10 -17 -2 -25 -31 -19
-81 4 -64 31 10 15 51 12 66 -6z m-1524 -61 c-3 -10 -5 -4 -5 12 0 17 2 24 5
18 2 -7 2 -21 0 -30z m2740 22 c6 -18 5 -20 -23 -29 -24 -7 -60 16 -50 32 11
18 66 15 73 -3z m-2739 -561 c-2 -190 -6 -335 -10 -322 -4 13 -5 -16 -3 -64 3
-52 1 -88 -4 -88 -6 0 -12 15 -14 33 -2 17 -3 -2 -1 -43 1 -41 0 -64 -3 -50
-3 13 -11 29 -19 35 -41 30 -43 430 -4 615 30 142 52 230 57 230 2 0 3 -155 1
-346z m802 242 c0 -18 -10 -52 -22 -77 l-23 -44 -3 39 c-4 43 24 129 39 120 5
-3 9 -20 9 -38z m38 -218 c13 -68 18 -116 13 -121 -5 -5 -30 -6 -55 -3 -41 6
-46 10 -55 42 -5 20 -6 47 -1 64 9 33 62 130 70 130 3 0 16 -50 28 -112z
m3176 -433 c30 -269 43 -521 26 -510 -11 7 -31 -34 -23 -47 2 -5 -1 -8 -6 -8
-6 0 -11 -8 -11 -18 0 -10 -7 -28 -16 -40 -8 -12 -17 -31 -19 -43 -2 -11 -7
-29 -10 -39 -25 -79 -34 -216 -18 -260 9 -21 10 -28 12 -45 0 -8 11 -24 24
-36 12 -12 15 -19 7 -15 -13 7 -13 6 0 -6 8 -7 15 -22 15 -33 -1 -29 -27 -76
-39 -72 -13 4 -60 160 -79 261 -13 68 -13 76 15 186 19 76 26 126 22 149 -5
23 -3 32 4 27 13 -8 16 7 39 199 11 99 16 209 15 374 -1 129 2 230 6 225 5 -5
21 -117 36 -249z m-4075 -150 c23 -36 27 -70 7 -62 -10 4 -16 -16 -26 -81 -7
-48 -21 -114 -30 -148 -25 -88 -133 -304 -151 -304 -12 0 -11 17 2 25 6 4 8
12 6 19 -3 7 6 37 19 66 13 30 23 65 24 76 0 12 6 24 14 27 7 3 16 18 19 34 5
29 31 130 50 197 13 44 14 167 3 236 l-7 45 26 -50 c14 -27 34 -63 44 -80z
m-117 -746 c-24 -52 -33 -32 -14 30 22 74 26 79 30 44 2 -17 -5 -51 -16 -74z
m4078 -224 c27 -83 28 -91 13 -103 -27 -20 -41 -14 -52 21 -16 48 -31 204 -24
240 7 32 7 32 20 -18 8 -27 27 -90 43 -140z m119 -67 c-4 -23 13 -122 27 -155
7 -18 9 -33 5 -33 -5 0 -11 8 -15 18 -3 9 -19 41 -36 71 l-30 53 21 29 c22 31
31 37 28 17z m-2669 -95 c0 -35 -1 -36 -19 -19 -16 15 -18 22 -9 42 15 32 28
21 28 -23z m1301 -107 c-7 -37 -25 -78 -57 -126 -26 -38 -49 -69 -51 -66 -4 4
54 168 88 246 21 49 24 52 27 28 2 -15 -1 -52 -7 -82z m1445 -48 c8 -16 13
-32 11 -34 -5 -5 -47 58 -47 70 0 14 21 -6 36 -36z m45 -68 c5 0 9 -5 9 -11 0
-8 -5 -8 -15 1 -8 7 -14 20 -14 29 1 13 2 13 6 -1 2 -10 9 -18 14 -18z m-3277
-45 c27 -25 77 -124 89 -176 6 -23 4 -26 -16 -23 -12 1 -102 8 -199 15 -194
13 -181 8 -193 80 -6 30 -3 37 12 42 10 3 70 24 133 46 63 23 122 41 131 41 9
0 28 -11 43 -25z m3318 -2 c23 -27 30 -43 19 -43 -5 0 -19 14 -31 30 -23 32
-13 42 12 13z m-3155 -175 c10 -21 10 -26 -1 -22 -12 4 -66 102 -66 119 0 12
53 -65 67 -97z m3277 26 c7 -19 2 -18 -19 6 -16 17 -16 20 -3 15 9 -4 19 -13
22 -21z"/>
<path d="M4217 4035 c9 -19 18 -33 21 -31 4 5 -26 66 -33 66 -3 0 3 -16 12
-35z"/>
<path d="M1333 4268 c-15 -20 -25 -38 -20 -38 3 0 12 11 21 25 17 26 16 35 -1
13z"/>
<path d="M3350 2596 c0 -2 9 -6 20 -9 11 -3 20 -1 20 4 0 5 -9 9 -20 9 -11 0
-20 -2 -20 -4z"/>
<path d="M3555 2531 c-9 -16 3 -31 26 -31 14 0 19 6 17 17 -4 20 -33 29 -43
14z"/>
<path d="M2820 2264 c0 -8 5 -12 10 -9 6 3 10 10 10 16 0 5 -4 9 -10 9 -5 0
-10 -7 -10 -16z"/>
<path d="M2566 1897 c-22 -7 -41 -17 -43 -23 -4 -11 103 18 115 31 9 9 -31 4
-72 -8z"/>
<path d="M2840 1886 c0 -2 25 -14 57 -26 65 -24 107 -23 53 1 -36 17 -110 34
-110 25z"/>
<path d="M3005 1810 c4 -6 11 -8 16 -5 14 9 11 15 -7 15 -8 0 -12 -5 -9 -10z"/>
<path d="M2898 33 c7 -3 16 -2 19 1 4 3 -2 6 -13 5 -11 0 -14 -3 -6 -6z"/>
</g>
</svg>
